<svg width="47" height="46" viewBox="0 0 47 46" fill="none" xmlns="http://www.w3.org/2000/svg">
<rect x="0.5" width="46" height="46" rx="6" fill="#FFE4E4"/>
<path d="M44.1203 18.3599L33.2706 7.51003C32.7644 7.00382 31.9435 7.00382 31.4373 7.51003L26.1719 12.7755C25.6656 13.2817 25.6656 14.1025 26.1719 14.6087L27.1635 15.6004L24.3904 15.8434C24.0845 15.8702 23.7868 15.9331 23.4994 16.029C23.2128 15.9334 22.9145 15.8701 22.6099 15.8434L19.8367 15.6004L20.8284 14.6087C21.3346 14.1025 21.3346 13.2817 20.8284 12.7755L15.5629 7.51003C15.0567 7.00382 14.2359 7.00382 13.7296 7.51003L2.8799 18.3599C2.37369 18.8661 2.37369 19.6869 2.8799 20.1932L8.14539 25.4586C8.65136 25.9646 9.47249 25.9648 9.97862 25.4586L11.1515 24.2858L11.394 27.0583C11.4734 27.9677 11.8729 28.8241 12.5184 29.4696L20.3257 37.2759C22.4687 39.419 24.7316 39.2189 26.1965 37.7543C26.8905 37.0602 34.4539 29.4979 34.4825 29.4691C35.1278 28.8236 35.527 27.9676 35.6064 27.0583L35.8489 24.2857L37.0218 25.4586C37.5277 25.9645 38.3489 25.9647 38.855 25.4586L44.1205 20.1931C44.6266 19.6869 44.6266 18.8661 44.1203 18.3599ZM9.062 22.7088L5.62975 19.2765L14.6464 10.26L18.0786 13.6921C7.19547 24.5753 9.97517 21.7956 9.062 22.7088ZM31.4724 28.8085C31.4722 28.8087 31.472 28.8089 31.4719 28.809C30.9963 29.2851 30.2262 29.2853 29.7495 28.8086C29.7487 28.8078 29.7477 28.8071 29.7469 28.8062L27.677 26.7363C27.1707 26.2301 26.35 26.2301 25.8438 26.7363C25.3376 27.2425 25.3376 28.0633 25.8438 28.5695L27.9163 30.642C27.9167 30.6424 27.9172 30.6428 27.9176 30.6432C28.3923 31.1193 28.3935 31.8886 27.9159 32.3652C27.4404 32.8412 26.6701 32.8414 26.1933 32.3647C26.1928 32.3642 26.1921 32.3637 26.1916 32.3632L24.1208 30.2924C23.6147 29.7862 22.7938 29.7862 22.2876 30.2924C21.7814 30.7986 21.7814 31.6194 22.2876 32.1256L24.3601 34.1981C24.3604 34.1984 24.3606 34.1986 24.3609 34.199C24.8342 34.6733 24.8394 35.4426 24.3588 35.9222C24.0741 36.2077 23.6655 36.3323 23.2658 36.2556C22.8303 36.1721 22.676 35.96 22.1587 35.4426L14.3513 27.6362C14.1361 27.4211 14.003 27.1356 13.9765 26.8324L13.5445 21.8928C14.0862 21.351 16.5788 18.8579 17.4438 17.9933L22.3834 18.4261C22.6864 18.4526 22.9715 18.5856 23.1864 18.8004C25.0836 20.6968 30.9837 26.5972 31.4718 27.0854C31.947 27.5608 31.9472 28.3338 31.4724 28.8085ZM33.1734 25.1203C32.7675 24.7144 28.3211 20.2677 26.3291 18.2762L29.5562 17.9934C30.478 18.9145 33.1829 21.6203 33.4555 21.8929L33.1734 25.1203ZM37.9383 22.7088C36.7241 21.4947 29.1899 13.9604 28.9217 13.6922L32.3539 10.26L41.3705 19.2765L37.9383 22.7088Z" fill="#B80000"/>
</svg>
