<svg width="41" height="45" viewBox="0 0 41 45" fill="none" xmlns="http://www.w3.org/2000/svg">
<path d="M9.74997 45C7.45423 45.0003 5.25032 44.0984 3.61349 42.4887C1.97665 40.8789 1.03801 38.6904 0.999966 36.395C0.774967 34.2325 0.807465 31.0425 2.26997 27.36C3.76497 23.595 6.67997 19.49 12 15.5C12.2626 15.303 12.5615 15.1597 12.8795 15.0782C13.1975 14.9967 13.5285 14.9787 13.8535 15.0251C14.5099 15.1189 15.1021 15.4696 15.5 16C15.8978 16.5304 16.0686 17.1972 15.9748 17.8536C15.8811 18.5099 15.5304 19.1022 15 19.5C11.09 22.4325 8.84997 25.2825 7.56747 27.775C8.76987 27.4662 10.0242 27.4168 11.2472 27.6301C12.4701 27.8434 13.6337 28.3145 14.6606 29.012C15.6875 29.7096 16.5542 30.6177 17.2032 31.676C17.8521 32.7343 18.2684 33.9185 18.4245 35.1501C18.5805 36.3817 18.4727 37.6324 18.1082 38.8191C17.7437 40.0058 17.1309 41.1013 16.3104 42.033C15.49 42.9646 14.4807 43.711 13.3495 44.2226C12.2184 44.7341 10.9914 44.9991 9.74997 45ZM32.25 45C29.9542 45.0003 27.7503 44.0984 26.1135 42.4887C24.4767 40.8789 23.538 38.6904 23.5 36.395C23.275 34.2325 23.3075 31.0425 24.77 27.36C26.2625 23.595 29.18 19.49 34.5 15.5C34.7626 15.303 35.0615 15.1597 35.3795 15.0782C35.6975 14.9967 36.0285 14.9787 36.3535 15.0251C37.0099 15.1189 37.6021 15.4696 38 16C38.3978 16.5304 38.5686 17.1972 38.4748 17.8536C38.3811 18.5099 38.0304 19.1022 37.5 19.5C33.59 22.4325 31.35 25.2825 30.0675 27.775C31.2699 27.4662 32.5242 27.4168 33.7472 27.6301C34.9701 27.8434 36.1337 28.3145 37.1606 29.012C38.1875 29.7096 39.0542 30.6177 39.7032 31.676C40.3521 32.7343 40.7684 33.9185 40.9245 35.1501C41.0805 36.3817 40.9727 37.6324 40.6082 38.8191C40.2438 40.0058 39.6309 41.1013 38.8104 42.033C37.99 42.9646 36.9807 43.711 35.8495 44.2226C34.7184 44.7341 33.4914 44.9991 32.25 45Z" fill="black"/>
</svg>
